<svg width="92" height="95" viewBox="0 0 92 95" fill="none" xmlns="http://www.w3.org/2000/svg">
<g filter="url(#filter0_d)">
<path d="M74.9436 12.5779H48.3196V73.1704L70.3533 67.4325L74.9436 12.5779Z" fill="#049DE8"/>
<path d="M74.9436 12.5779H48.3196V73.1704L70.3533 67.4325L74.9436 12.5779Z" fill="#049DE8"/>
<path d="M74.9436 12.5779H48.3196V73.1704L70.3533 67.4325L74.9436 12.5779Z" stroke="#097CBC" stroke-width="9"/>
</g>
<g filter="url(#filter1_d)">
<path d="M17.5643 12.5779H44.1883V73.1704L22.1547 67.4325L17.5643 12.5779Z" fill="#007EB3"/>
<path d="M17.5643 12.5779H44.1883V73.1704L22.1547 67.4325L17.5643 12.5779Z" fill="#007EB3"/>
<path d="M17.5643 12.5779H44.1883V73.1704L22.1547 67.4325L17.5643 12.5779Z" stroke="#097CBC" stroke-width="9"/>
</g>
<path d="M29.4992 18.5453L29.7287 26.1194V26.5784H58.1888L57.5003 36.9067H38.6799V44.7103H56.5822L55.8937 55.0386L47.4015 56.8747L39.1389 55.0386V51.1368L32.0239 50.2187L33.1715 60.7765L47.4015 64.2192L63.2382 60.0879L66.681 18.5453H29.4992Z" fill="#F2F2F2"/>
<defs>
<filter id="filter0_d" x="31.8196" y="0.0778809" width="60.0163" height="94.9145" filterUnits="userSpaceOnUse" color-interpolation-filters="sRGB">
<feFlood flood-opacity="0" result="BackgroundImageFix"/>
<feColorMatrix in="SourceAlpha" type="matrix" values="0 0 0 0 0 0 0 0 0 0 0 0 0 0 0 0 0 0 127 0"/>
<feOffset dy="4"/>
<feGaussianBlur stdDeviation="6"/>
<feColorMatrix type="matrix" values="0 0 0 0 0 0 0 0 0 0 0 0 0 0 0 0 0 0 0.3 0"/>
<feBlend mode="normal" in2="BackgroundImageFix" result="effect1_dropShadow"/>
<feBlend mode="normal" in="SourceGraphic" in2="effect1_dropShadow" result="shape"/>
</filter>
<filter id="filter1_d" x="0.672058" y="0.0778809" width="60.0163" height="94.9145" filterUnits="userSpaceOnUse" color-interpolation-filters="sRGB">
<feFlood flood-opacity="0" result="BackgroundImageFix"/>
<feColorMatrix in="SourceAlpha" type="matrix" values="0 0 0 0 0 0 0 0 0 0 0 0 0 0 0 0 0 0 127 0"/>
<feOffset dy="4"/>
<feGaussianBlur stdDeviation="6"/>
<feColorMatrix type="matrix" values="0 0 0 0 0 0 0 0 0 0 0 0 0 0 0 0 0 0 0.3 0"/>
<feBlend mode="normal" in2="BackgroundImageFix" result="effect1_dropShadow"/>
<feBlend mode="normal" in="SourceGraphic" in2="effect1_dropShadow" result="shape"/>
</filter>
</defs>
</svg>
