<svg width="80" height="71" viewBox="0 0 80 71" fill="none" xmlns="http://www.w3.org/2000/svg">
<path d="M62.5708 24.5575C61.8291 24.3039 61.0811 24.069 60.3275 23.853C60.4525 23.3469 60.568 22.8386 60.6741 22.3282C62.3722 14.1133 61.262 7.49535 57.4705 5.31683C53.8354 3.22744 47.89 5.40596 41.8855 10.6134C41.2938 11.1278 40.7152 11.6569 40.1504 12.2003C39.7721 11.839 39.3872 11.4846 38.9957 11.1375C32.7028 5.56886 26.3951 3.22252 22.6076 5.4075C18.9759 7.50272 17.9002 13.7245 19.4289 21.5097C19.581 22.2807 19.7528 23.0477 19.944 23.81C19.0515 24.0626 18.1895 24.3319 17.3648 24.6183C9.98726 27.1816 5.27551 31.1994 5.27551 35.3664C5.27551 39.6706 10.3333 43.9877 18.018 46.6051C18.6411 46.8164 19.2694 47.0121 19.9023 47.1922C19.6967 48.0134 19.5142 48.8402 19.3549 49.6716C17.8974 57.3216 19.0357 63.3958 22.6579 65.4782C26.3991 67.6281 32.6781 65.4182 38.7925 60.0918C39.2758 59.6707 39.7609 59.2241 40.2466 58.756C40.8584 59.3443 41.4866 59.9155 42.1303 60.4689C48.0528 65.5479 53.902 67.5989 57.5211 65.511C61.2589 63.3546 62.4734 56.8292 60.8962 48.89C60.7759 48.2836 60.6356 47.6643 60.4783 47.0336C60.9193 46.9039 61.352 46.7699 61.7742 46.6303C69.763 43.9926 74.9605 39.7281 74.9605 35.3664C74.9605 31.1843 70.097 27.1395 62.5708 24.5575V24.5575Z" fill="#53C1DE"/>
<path d="M60.8379 43.8144C60.457 43.9401 60.066 44.0615 59.6675 44.1792C58.7855 41.3967 57.5951 38.4378 56.1388 35.3812C57.5288 32.3968 58.6729 29.476 59.5303 26.7114C60.243 26.9173 60.9351 27.134 61.6018 27.363C68.0505 29.575 71.9838 32.8461 71.9838 35.3664C71.9838 38.0512 67.7356 41.5366 60.8382 43.8144H60.8379ZM57.976 49.4663C58.6732 52.9769 58.7729 56.1509 58.3109 58.6322C57.8958 60.8617 57.0612 62.3481 56.0293 62.9434C53.8332 64.2103 49.1366 62.5635 44.072 58.22C43.4913 57.7221 42.9063 57.1904 42.3197 56.6279C44.2833 54.4875 46.2456 51.9992 48.1608 49.2361C51.5298 48.9382 54.7125 48.4511 57.5988 47.7863C57.7406 48.358 57.8671 48.9183 57.976 49.4663ZM29.0325 62.7246C26.887 63.4797 25.1782 63.5012 24.1453 62.9077C21.947 61.6445 21.0336 56.7668 22.2798 50.2248C22.428 49.4517 22.5977 48.6828 22.7887 47.9191C25.6429 48.5482 28.8025 49.0009 32.1795 49.2739C34.1073 51.9777 36.1264 54.4629 38.1612 56.6393C37.7288 57.0562 37.2861 57.4624 36.8335 57.8576C34.1298 60.2132 31.4205 61.884 29.0329 62.7246H29.0325ZM18.9808 43.7978C15.5829 42.6403 12.7767 41.1361 10.8532 39.4948C9.12497 38.0195 8.2522 36.555 8.2522 35.3664C8.2522 32.8378 12.0353 29.6122 18.3449 27.4198C19.1369 27.1459 19.9367 26.895 20.7434 26.6677C21.6155 29.4945 22.7594 32.45 24.1398 35.4387C22.7415 38.4719 21.5813 41.4745 20.7011 44.3344C20.1234 44.1696 19.5498 43.9907 18.9808 43.7978ZM22.3504 20.9399C21.0406 14.2694 21.9103 9.23772 24.0991 7.97512C26.4306 6.63014 31.5855 8.54802 37.0189 13.356C37.3661 13.6633 37.7149 13.9851 38.0644 14.318C36.04 16.4845 34.0394 18.951 32.1283 21.6391C28.8509 21.9419 25.7135 22.4281 22.8294 23.0794C22.6517 22.3702 22.492 21.6567 22.3504 20.9396V20.9399ZM52.4093 28.337C51.7281 27.1642 51.0216 26.0063 50.2903 24.8639C52.5139 25.1436 54.644 25.5155 56.6443 25.9707C56.0438 27.8888 55.2953 29.8946 54.4139 31.9508C53.7699 30.733 53.1016 29.5282 52.4093 28.337ZM40.1513 16.4381C41.5243 17.9205 42.8995 19.5759 44.2521 21.3717C41.5083 21.2425 38.7599 21.2419 36.016 21.3699C37.3698 19.5906 38.7567 17.9377 40.1513 16.4381ZM27.8147 28.3572C27.1311 29.539 26.4752 30.7364 25.8477 31.9487C24.9808 29.8995 24.2391 27.8848 23.6334 25.9393C25.6216 25.4958 27.7419 25.1334 29.951 24.8583C29.2115 26.0078 28.4992 27.1744 27.8147 28.3572ZM30.0145 46.0863C27.7323 45.8324 25.58 45.4885 23.5924 45.0573C24.2076 43.0773 24.9657 41.0193 25.8511 38.9262C26.4813 40.1393 27.14 41.3375 27.8267 42.5198C28.5274 43.7258 29.2569 44.915 30.0145 46.0863ZM40.2337 54.5044C38.8227 52.987 37.4155 51.3089 36.041 49.5038C37.3751 49.556 38.7354 49.5825 40.118 49.5825C41.5385 49.5825 42.9426 49.5508 44.3246 49.4893C42.9676 51.3273 41.5974 53.0079 40.2337 54.5044ZM54.4423 38.8196C55.3737 40.9354 56.1589 42.9823 56.7824 44.9288C54.7618 45.3883 52.5805 45.7584 50.282 46.0331C51.0185 44.8694 51.7318 43.6912 52.4213 42.4992C53.1223 41.2877 53.7961 40.0609 54.4423 38.8196ZM49.8425 41.0171C48.7869 42.8446 47.672 44.6375 46.4994 46.3927C44.4319 46.54 42.2953 46.6159 40.118 46.6159C37.9496 46.6159 35.8402 46.5486 33.8087 46.4173C32.6058 44.6661 31.4698 42.8702 30.4031 41.0334C29.3414 39.2064 28.3497 37.3398 27.4301 35.4377C28.3473 33.5351 29.336 31.6676 30.3941 29.839V29.8396C31.4519 28.0107 32.579 26.2224 33.773 24.4788C35.8454 24.3226 37.9703 24.2409 40.1183 24.2409C42.2759 24.2409 44.4035 24.3232 46.4754 24.4806C47.6573 26.2216 48.7772 28.0036 49.8329 29.8233C50.8947 31.6478 51.8966 33.5062 52.8371 35.3956C51.9063 37.3043 50.9075 39.1793 49.8428 41.0171H49.8425ZM55.9837 7.88691C58.317 9.2282 59.2247 14.6367 57.7585 21.7295C57.6624 22.1915 57.558 22.6518 57.4452 23.1101C54.5542 22.4453 51.4147 21.9505 48.1278 21.6431C46.2129 18.9258 44.229 16.455 42.2373 14.3164C42.7592 13.815 43.2935 13.3266 43.8398 12.8516C48.9845 8.38943 53.7928 6.62768 55.9837 7.88691Z" fill="#FDFFFC"/>
<path d="M40.118 29.165C43.5549 29.165 46.3406 31.9416 46.3406 35.3664C46.3406 38.7916 43.5549 41.5682 40.118 41.5682C36.6815 41.5682 33.8954 38.7916 33.8954 35.3664C33.8954 31.9416 36.6815 29.165 40.118 29.165" fill="#53C1DE"/>
</svg>
