<svg width="90" height="89" viewBox="0 0 90 89" fill="none" xmlns="http://www.w3.org/2000/svg">
<g clip-path="url(#clip0)">
<path d="M58.2866 82.3452V71.9726L41.5974 68.515L45.0527 82.3452H58.2866Z" fill="#9ABADB"/>
<path d="M31.8187 82.3453H45.0527V68.515L31.8187 71.9726V82.3453Z" fill="#D1E8FF"/>
<path d="M89.2448 56.4135L41.5974 52.956L45.0527 71.9725H89.2448V56.4135Z" fill="#D1E8FF"/>
<path d="M0.860596 56.4135V71.9725H45.0527V52.956L0.860596 56.4135Z" fill="#F5F5FF"/>
<path d="M66.061 79.7542H45.0527L43.3251 82.3452L45.0527 84.9363H66.061V79.7542Z" fill="#D1E8FF"/>
<path d="M45.0527 79.7535H24.0442V84.9357H45.0527V79.7535Z" fill="#F5F5FF"/>
<path d="M89.2448 4.56268H45.0527L41.5974 30.4881L45.0527 56.4136H89.2448V4.56268Z" fill="#294B6E"/>
<path d="M45.0527 4.56268H0.860596V56.4139H45.0527V4.56268Z" fill="#6283A3"/>
<path d="M31.7308 44.2164L18.0116 30.4881L31.7308 16.7598L35.3927 20.4241L25.3354 30.4881L35.3927 40.5521L31.7308 44.2164Z" fill="#F5F5FF"/>
<path d="M58.3745 44.2164L54.7126 40.5521L64.77 30.4881L54.7126 20.4241L58.3745 16.7598L72.0938 30.4881L58.3745 44.2164Z" fill="#D1E8FF"/>
<path d="M39.3195 46.0464L44.3988 47.0574L50.7852 14.9309L45.7058 13.9199L39.3195 46.0464Z" fill="#D1E8FF"/>
</g>
<defs>
<clipPath id="clip0">
<rect width="88.3842" height="88.4427" fill="white" transform="translate(0.860596 0.528137)"/>
</clipPath>
</defs>
</svg>
