<svg width="57" height="57" viewBox="0 0 57 57" fill="none" xmlns="http://www.w3.org/2000/svg">
<g clip-path="url(#clip0)">
<path d="M27.821 11.3027C25.2394 13.1196 22.3136 15.1789 20.7458 18.5858C18.0228 24.5297 26.3178 31.0133 26.6723 31.2864C26.7547 31.3499 26.8533 31.3815 26.9517 31.3815C27.0561 31.3815 27.1606 31.3458 27.2455 31.2746C27.4102 31.1368 27.4569 30.9027 27.358 30.7121C27.328 30.6542 24.3505 24.8669 24.4612 20.7152C24.5004 19.2691 26.5227 17.6287 28.6637 15.892C30.6246 14.3013 32.8474 12.4984 34.1479 10.3893C37.0029 5.74684 33.8297 1.1819 33.7973 1.13626C33.6712 0.959148 33.4386 0.895052 33.2397 0.982297C33.0409 1.07009 32.9308 1.28509 32.9762 1.49769C32.9827 1.52794 33.5997 4.5467 31.8826 7.65685C31.1753 8.94206 29.621 10.036 27.821 11.3027Z" fill="#DB380E"/>
<path d="M38.6975 13.3498C38.8796 13.2126 38.9331 12.9622 38.823 12.7624C38.7127 12.5626 38.4726 12.4744 38.2594 12.5555C37.8208 12.7223 27.5201 16.6955 27.5201 21.4962C27.5201 24.8055 28.9328 26.5537 29.9643 27.8304C30.369 28.3312 30.7183 28.7636 30.8334 29.1328C31.1575 30.1966 30.3897 32.1195 30.0668 32.7708C29.9737 32.9579 30.0193 33.1848 30.1777 33.3215C30.2632 33.3955 30.3701 33.433 30.477 33.433C30.568 33.433 30.6594 33.4059 30.7384 33.3509C30.9156 33.2277 35.067 30.2907 34.3224 26.752C34.045 25.407 33.3845 24.4242 32.8017 23.557C31.8988 22.2134 31.2467 21.2429 32.236 19.4504C33.3951 17.3595 38.6444 13.3896 38.6975 13.3498Z" fill="#DB380E"/>
<path d="M11.8844 33.509C11.7078 34.0381 11.7912 34.5629 12.1252 35.0271C13.2418 36.5785 17.1972 37.4326 23.263 37.4326C23.2633 37.4326 23.2635 37.4326 23.2637 37.4326C24.0856 37.4326 24.9534 37.4164 25.8422 37.3845C35.5403 37.0372 39.1374 34.0138 39.2858 33.8853C39.4475 33.7452 39.4907 33.512 39.3902 33.3233C39.2896 33.1347 39.0728 33.0399 38.8656 33.097C35.45 34.0302 29.0722 34.3615 24.6484 34.3615C19.6983 34.3615 17.1774 34.0047 16.5602 33.7412C16.8769 33.306 18.8302 32.529 21.2506 32.0526C21.4819 32.0072 21.6409 31.7934 21.618 31.5586C21.5951 31.3239 21.398 31.1448 21.1622 31.1448C19.7434 31.1448 12.6282 31.2588 11.8844 33.509Z" fill="#DB380E"/>
<path d="M44.3364 30.3951C42.3361 30.3951 40.4393 31.3984 40.3594 31.4408C40.1744 31.54 40.0806 31.7522 40.1313 31.9562C40.1823 32.1599 40.3653 32.303 40.5751 32.3032C40.6176 32.3032 44.842 32.3379 45.2245 34.7531C45.5635 36.8367 41.2275 40.2128 39.5282 41.3379C39.3447 41.4594 39.2734 41.6942 39.3586 41.8973C39.4312 42.0701 39.5994 42.1782 39.7807 42.1782C39.8124 42.1782 39.8444 42.175 39.8763 42.1682C40.2796 42.0818 49.7415 39.9954 48.7411 34.4827C48.1308 31.1043 46.0088 30.3951 44.3364 30.3951Z" fill="#DB380E"/>
<path d="M37.8475 40.6633C37.8805 40.4867 37.807 40.3071 37.6602 40.2039L35.3914 38.6137C35.2808 38.5362 35.141 38.5118 35.0111 38.5462C34.9875 38.5522 32.6149 39.1764 29.1704 39.5591C27.8034 39.7125 26.2722 39.7936 24.7421 39.7936C21.2984 39.7936 19.0468 39.3887 18.7189 39.0917C18.6755 39.0082 18.6892 38.9703 18.697 38.9493C18.7566 38.7835 19.0759 38.5865 19.2817 38.5086C19.509 38.4244 19.6315 38.1774 19.5608 37.9455C19.4903 37.7132 19.2512 37.5766 19.0153 37.6333C16.7395 38.1828 15.6266 38.9513 15.7076 39.9174C15.8514 41.6302 19.816 42.5093 23.1677 42.7417C23.6497 42.7746 24.1709 42.7913 24.7167 42.7913C24.717 42.7913 24.7172 42.7913 24.7175 42.7913C30.2908 42.7913 37.4356 41.0415 37.507 41.0237C37.6814 40.9811 37.8145 40.8402 37.8475 40.6633Z" fill="#DB380E"/>
<path d="M20.7433 44.3392C20.9152 44.2274 20.9913 44.0148 20.9303 43.819C20.8696 43.6232 20.6866 43.4946 20.481 43.4973C20.176 43.5054 17.4966 43.6264 17.309 45.3334C17.2523 45.8435 17.3983 46.3097 17.7432 46.7186C18.7052 47.8595 21.3021 48.5376 25.6808 48.7916C26.1988 48.8227 26.725 48.8383 27.245 48.8383C32.8118 48.8383 36.5609 47.0941 36.718 47.0199C36.8702 46.9478 36.9706 46.7981 36.9795 46.63C36.9885 46.4618 36.9046 46.3023 36.761 46.2144L33.8938 44.4629C33.7943 44.4022 33.6752 44.3821 33.5618 44.4053C33.5436 44.4092 31.7232 44.787 28.9758 45.1602C28.456 45.231 27.805 45.2669 27.0411 45.2669C24.2967 45.2669 21.2442 44.8182 20.6587 44.5244C20.6502 44.4696 20.661 44.3999 20.7433 44.3392Z" fill="#DB380E"/>
<path d="M24.6505 54.1044C37.4017 54.0936 44.2455 51.8245 45.5639 50.3966C46.0306 49.8914 46.081 49.4132 46.0414 49.1008C45.9434 48.332 45.2436 47.8614 45.1643 47.8103C44.9729 47.6871 44.716 47.7194 44.5667 47.8917C44.4178 48.064 44.4143 48.3158 44.5638 48.488C44.6442 48.5915 44.6907 48.7648 44.4555 49.0003C43.9285 49.4929 38.6127 50.9881 29.7617 51.4373C28.5493 51.5003 27.2776 51.5324 25.9822 51.5326C18.0575 51.5326 12.2578 50.4464 11.4965 49.8135C11.7899 49.3915 13.8414 48.7175 16.0231 48.3362C16.2689 48.2933 16.435 48.0615 16.3969 47.8147C16.3588 47.568 16.1315 47.3982 15.8831 47.4304C15.8215 47.4388 15.6127 47.4513 15.3708 47.4661C11.7712 47.6861 7.61136 48.1762 7.39432 50.0322C7.32841 50.5977 7.49634 51.1111 7.89365 51.5579C8.86581 52.651 11.6601 54.1042 24.6501 54.1042C24.6503 54.1044 24.6503 54.1044 24.6505 54.1044Z" fill="#DB380E"/>
<path d="M48.0685 50.799C47.8882 50.7155 47.6752 50.7577 47.5407 50.9029C47.5221 50.9231 45.6049 52.9291 39.8407 54.1071C37.634 54.5495 33.4917 54.7739 27.529 54.7739C21.5552 54.7739 15.8707 54.5387 15.8141 54.5363C15.5767 54.5247 15.3736 54.6975 15.3413 54.9314C15.3089 55.1651 15.4595 55.3854 15.6887 55.44C15.7479 55.454 21.7051 56.8506 29.8504 56.8506C33.757 56.8506 37.5586 56.5331 41.1496 55.9066C47.8454 54.732 48.3142 51.4097 48.3309 51.2688C48.3542 51.0719 48.2484 50.8824 48.0685 50.799Z" fill="#DB380E"/>
</g>
<defs>
<clipPath id="clip0">
<rect width="55.8698" height="55.9068" fill="white" transform="translate(0.162842 0.943665)"/>
</clipPath>
</defs>
</svg>
